PathFileType	4	(X/Y/Z)	C:\Users\Ali Mert BOSTAN\Desktop\Yazýlým\Hacettepe-Bil-D-nem-Proje\basket_Sports2D\basket_Sports2D_px_person00.trc
DataRate	CameraRate	NumFrames	NumMarkers	Units	OrigDataRate	OrigDataStartFrame	OrigNumFrames
120.0	120.0	7	22	m	120.0	0	266
Frame#	Time	Hip			RHip			RKnee			RAnkle			RBigToe			RSmallToe			RHeel			LHip			LKnee			LAnkle			LBigToe			LSmallToe			LHeel			Neck			Head			Nose			RShoulder			RElbow			RWrist			LShoulder			LElbow			LWrist		
		X1	Y1	Z1	X2	Y2	Z2	X3	Y3	Z3	X4	Y4	Z4	X5	Y5	Z5	X6	Y6	Z6	X7	Y7	Z7	X8	Y8	Z8	X9	Y9	Z9	X10	Y10	Z10	X11	Y11	Z11	X12	Y12	Z12	X13	Y13	Z13	X14	Y14	Z14	X15	Y15	Z15	X16	Y16	Z16	X17	Y17	Z17	X18	Y18	Z18	X19	Y19	Z19	X20	Y20	Z20	X21	Y21	Z21	X22	Y22	Z22
0	0.0	368.92072793058713	598.7639943820658	0.0	371.096846667961	598.7850404608065	0.0	396.76703999978196	794.1782196898964	0.0	371.15772801746266	989.6396415119025	0.0	454.86411096327896	1006.8107128241663	0.0	439.74198662131494	1019.6678170113554	0.0	353.9375521897347	1008.9751210435903	0.0	366.7912561413101	598.7622255990126	0.0	368.84462679063915	792.0469334920759	0.0	356.0850460792046	983.1714903996356	0.0	446.1982321672399	1000.392198593536	0.0	435.52325129001946	998.2457094266442	0.0	328.26683034800885	1000.3646145500222	0.0	405.47477516358197	351.78417447137076	0.0	439.8349325214054	233.76913027073124	0.0	463.4567393583163	304.61140507955133	0.0	399.01068201358254	379.7902055835955	0.0	431.083707121872	495.8128212030131	0.0	519.1399366126847	463.52617719397705	0.0	377.6413673276842	375.44685071867525	0.0	418.24188934864236	489.3256796531558	0.0	508.4872396250304	465.7094223870408	0.0
1	0.008333333333333333	368.5456147359864	599.3437565155679	0.0	370.59469000584227	598.931052245806	0.0	392.3733667043024	793.1231200287419	0.0	369.5644489828193	989.1838122178325	0.0	452.1618006557196	1007.7720084992893	0.0	437.2106983806019	1020.0042882229457	0.0	351.32258708765835	1008.7707748195857	0.0	367.7177515280984	598.5075457393049	0.0	371.3396056912287	790.8169154464457	0.0	359.77685160798336	981.9512562358881	0.0	444.338612844719	1001.1903688741265	0.0	435.3524233553952	998.95645344141	0.0	329.9297410678665	1000.0464611471009	0.0	405.16700088152436	351.08696893132884	0.0	440.04111227960067	234.19548381550152	0.0	463.69581367189693	304.38085874061613	0.0	398.41013697257694	379.09237895498103	0.0	430.8761389799426	496.5086757283887	0.0	518.6780797324104	462.2284747335821	0.0	379.0432623953437	375.3819925343761	0.0	417.51037111830175	490.35957244240694	0.0	508.920682347336	465.31888452461055	0.0
2	0.016666666666666666	368.2006791155246	599.8967862655677	0.0	370.1227447835064	599.0778924438831	0.0	388.2979646862636	792.1590592851569	0.0	368.0567013955156	988.7559909029991	0.0	449.6545086751464	1008.6796527343087	0.0	434.8621160311149	1020.3379288478135	0.0	348.88256970777945	1008.5963547429978	0.0	368.5783353404429	598.286139814222	0.0	373.79145139146186	789.6903828256156	0.0	363.23224452547714	980.8230133576492	0.0	442.6544756273199	1001.9442407933905	0.0	435.19467201900824	999.6208731136744	0.0	331.4655484308925	999.7634488901139	0.0	404.87364517895975	350.4425428001467	0.0	440.23438392222647	234.58708344452808	0.0	463.910883171461	304.17016916443293	0.0	397.8515399820739	378.43995558671423	0.0	430.7229505394819	497.136065697126	0.0	518.2816134820853	461.01140876326133	0.0	380.3304601138463	375.3181244414414	0.0	416.83935138185495	491.31466628535867	0.0	509.32437105783	464.9232275263042	0.0
3	0.025	367.90572346652203	600.4044779781957	0.0	369.70381564441334	599.2236668576584	0.0	384.7523978553474	791.3456662684913	0.0	366.71184653638693	988.38025612285	0.0	447.47984623913624	1009.4914929187387	0.0	432.82026093733884	1020.6623446480216	0.0	346.7539563657795	1008.4749419657293	0.0	369.33218256470263	598.115257005345	0.0	376.1089219117695	788.7393512360212	0.0	366.2884474246301	979.8562347428269	0.0	441.25522595609925	1002.6267907379806	0.0	435.05912016290927	1000.2128136597856	0.0	332.7977810594445	999.5421005411728	0.0	404.6025759800599	349.88676777453793	0.0	440.3992969234592	234.93012884562074	0.0	464.0846192137609	303.9981741487325	0.0	397.3608481524126	377.86604323887263	0.0	430.6505575260774	497.6573372199461	0.0	517.9837610313506	459.9303290433205	0.0	381.4414947894611	375.25742292425883	0.0	416.27756625849855	492.14302969060833	0.0	509.68419202093077	464.5306657859439	0.0
4	0.03333333333333333	367.66927935088296	600.8574195997888	0.0	369.3524786986596	599.3626446910483	0.0	381.8388627012972	790.6916340298798	0.0	365.5848377297668	988.0568095829876	0.0	445.6872694877442	1010.1855294811111	0.0	431.1324368585078	1020.963591041892	0.0	345.0095504453919	1008.4047947644723	0.0	369.96060885454676	597.9949697829817	0.0	378.1219063108738	787.9845170582378	0.0	368.84430647066307	979.0761377542868	0.0	440.172212448644	1003.2172230646881	0.0	434.9350543008093	1000.7119839746642	0.0	333.8860251959947	999.3823038502891	0.0	404.3551884481267	349.43246366101494	0.0	440.5263061357948	235.2224743600083	0.0	464.2136442112014	303.8732258864093	0.0	396.9493447196466	377.3806800038439	0.0	430.6627432251352	498.058665831415	0.0	517.7960976826743	459.0059730062144	0.0	382.3589273722966	375.20241384547637	0.0	415.8528945569036	492.8290427693088	0.0	510.0010061310472	464.1493359530993	0.0
5	0.041666666666666664	367.49356113063914	601.2452339573364	0.0	369.07689172073856	599.4817329561689	0.0	379.58567858531416	790.1718229666388	0.0	364.70906848155437	987.7676609601676	0.0	444.27242320922255	1010.756391346126	0.0	429.79434681751343	1021.2246294145222	0.0	343.6730985397434	1008.3657190407989	0.0	370.45136280745544	597.9108153433821	0.0	379.60229137088925	787.4084296704607	0.0	370.84214105345774	978.4705580398349	0.0	439.3951578293186	1003.6925994745276	0.0	434.80339311460943	1001.0968040293012	0.0	334.7096363042307	999.263960431432	0.0	404.13040300157496	349.0782540742093	0.0	440.6080177170143	235.46340878349972	0.0	464.2997451430034	303.79295890484616	0.0	396.62119750588005	376.9818945861115	0.0	430.7505235947893	498.3395601453324	0.0	517.7189845688284	458.23952933705044	0.0	383.08548329435735	375.1549802714907	0.0	415.57277195131593	493.37373641675856	0.0	510.28355488099885	463.78869334268114	0.0
6	0.05	367.3782342642567	601.5557288039141	0.0	368.8807161151491	599.5657718906125	0.0	377.9845429139219	789.760619276111	0.0	364.10016741962505	987.4966552591628	0.0	443.2173024133313	1011.2103065995547	0.0	428.78242914103237	1021.4319314635964	0.0	342.74080422708363	1008.3355882589917	0.0	370.7896169692906	597.8446792314348	0.0	380.36488111813367	786.9828579765343	0.0	372.25466067948594	978.0140947606684	0.0	438.90605849096806	1004.0340945957676	0.0	434.65318212053614	1001.3518433316542	0.0	335.26040112295567	999.1666962050291	0.0	403.9268833315431	348.81975445756206	0.0	440.63784205829324	235.65150364347807	0.0	464.3454336999732	303.75225174346417	0.0	396.37541866501203	376.66362472042533	0.0	430.90322510218016	498.50313974245404	0.0	517.7481374780425	457.62502950793436	0.0	383.6262256532791	375.1160178601198	0.0	415.43548707403505	493.78003967021306	0.0	510.5450425224121	463.45986911487057	0.0
